# Blender 5.1.2
# www.blender.org
mtllib Untitled.mtl
o Circle
v 1.187797 -0.216584 2.176261
v 1.187797 -0.080146 2.284415
v 1.187797 -0.033337 2.452110
v 1.187797 -0.094037 2.615291
v 1.187797 -0.239059 2.711629
v 1.187797 -0.413011 2.704327
v 1.187797 -0.549448 2.596172
v 1.187797 -0.596257 2.428478
v 1.187797 -0.535558 2.265296
v 1.187797 -0.390535 2.168958
v 1.203766 -0.216584 -1.822470
v 1.203766 -0.080146 -1.714316
v 1.203766 -0.033337 -1.546621
v 1.203766 -0.094037 -1.383439
v 1.203766 -0.239059 -1.287101
v 1.203766 -0.413011 -1.294404
v 1.203766 -0.549448 -1.402558
v 1.203766 -0.596257 -1.570253
v 1.203766 -0.535558 -1.733435
v 1.203766 -0.390535 -1.829773
v -1.187797 -0.216584 2.176261
v -1.187797 -0.080146 2.284415
v -1.187797 -0.033337 2.452110
v -1.187797 -0.094037 2.615291
v -1.187797 -0.239059 2.711629
v -1.187797 -0.413011 2.704327
v -1.187797 -0.549448 2.596172
v -1.187797 -0.596257 2.428478
v -1.187797 -0.535558 2.265296
v -1.187797 -0.390535 2.168958
v -1.203766 -0.216584 -1.822470
v -1.203766 -0.080146 -1.714316
v -1.203766 -0.033337 -1.546621
v -1.203766 -0.094037 -1.383439
v -1.203766 -0.239059 -1.287101
v -1.203766 -0.413011 -1.294404
v -1.203766 -0.549448 -1.402558
v -1.203766 -0.596257 -1.570253
v -1.203766 -0.535558 -1.733435
v -1.203766 -0.390535 -1.829773
vn 1.0000 -0.0000 -0.0000
vn -1.0000 -0.0000 -0.0000
vt 0.966663 0.765248
vt 0.950315 0.753015
vt 0.929899 0.752728
vt 0.913213 0.764496
vt 0.906631 0.783824
vt 0.912667 0.803330
vt 0.929015 0.815562
vt 0.949431 0.815850
vt 0.966117 0.804082
vt 0.972699 0.784753
s 1
usemtl Material.001
f 2/1/1 3/2/1 4/3/1 5/4/1 6/5/1 7/6/1 8/7/1 9/8/1 10/9/1 1/10/1
f 12/1/1 13/2/1 14/3/1 15/4/1 16/5/1 17/6/1 18/7/1 19/8/1 20/9/1 11/10/1
f 22/1/2 21/10/2 30/9/2 29/8/2 28/7/2 27/6/2 26/5/2 25/4/2 24/3/2 23/2/2
f 32/1/2 31/10/2 40/9/2 39/8/2 38/7/2 37/6/2 36/5/2 35/4/2 34/3/2 33/2/2
o Cube.001_Cube.004
v -0.519205 -0.457584 3.668055
v -0.519205 -0.158681 3.668055
v -0.519205 -0.457584 3.479830
v -0.519205 -0.158681 3.479830
v 0.519205 -0.457584 3.668055
v 0.519205 -0.158681 3.668055
v 0.519205 -0.457584 3.479830
v 0.519205 -0.158681 3.479830
vn -1.0000 -0.0000 -0.0000
vn 1.0000 -0.0000 -0.0000
vn -0.0000 -0.0000 1.0000
vt 0.803640 0.680771
vt 0.803640 0.716420
vt 0.781191 0.716420
vt 0.781191 0.680771
vt 0.949936 0.680771
vt 0.949936 0.716420
vt 0.927487 0.716420
vt 0.927487 0.680771
s 1
usemtl Material.001
f 41/11/3 42/12/3 44/13/3 43/14/3
f 47/15/4 48/16/4 46/17/4 45/18/4
f 45/18/5 46/17/5 42/12/5 41/11/5
o Cube_Cube.002
v 1.166300 0.565656 0.959427
v 1.165461 0.786307 0.956165
v 1.144197 0.565656 0.873485
v 1.144197 0.786307 0.873485
v 1.410642 0.607518 0.820962
v 1.388533 0.786307 0.830418
v 1.411230 0.607518 0.741391
v 1.387128 0.786307 0.753314
v 1.164583 0.659153 0.989670
v 1.126179 0.683384 0.884385
v 1.411230 0.735478 0.741391
v 1.410469 0.735478 0.844360
v 1.041660 0.524968 0.974958
v 1.050009 0.524968 1.035790
v 0.991437 0.632234 0.982624
v 1.012728 0.609837 1.059743
v -1.166300 0.565656 0.959427
v -1.165461 0.786307 0.956165
v -1.144197 0.565656 0.873485
v -1.144197 0.786307 0.873485
v -1.410642 0.607518 0.820962
v -1.388533 0.786307 0.830418
v -1.411230 0.607518 0.741391
v -1.387128 0.786307 0.753314
v -1.164583 0.659153 0.989670
v -1.126179 0.683384 0.884385
v -1.411230 0.735478 0.741391
v -1.410469 0.735478 0.844360
v -1.041660 0.524968 0.974958
v -1.050009 0.524968 1.035790
v -0.991437 0.632234 0.982624
v -1.012728 0.609837 1.059743
vn -0.9387 0.1380 0.3158
vn -0.4451 -0.0117 -0.8954
vn 0.9110 0.4125 -0.0033
vn 0.4460 0.2794 0.8503
vn 0.1514 -0.9883 -0.0197
vn -0.0000 1.0000 -0.0000
vn 0.5262 -0.1959 0.8275
vn 1.0000 -0.0000 0.0074
vn -0.4469 0.0069 -0.8946
vn -0.6114 -0.1209 -0.7820
vn 0.5114 -0.1455 0.8469
vn -0.1585 0.9429 0.2929
vn 0.3026 -0.9510 -0.0628
vn 0.9387 0.1380 0.3158
vn 0.4451 -0.0117 -0.8954
vn -0.9110 0.4125 -0.0033
vn -0.4460 0.2794 0.8503
vn -0.1514 -0.9883 -0.0197
vn -0.5262 -0.1959 0.8275
vn -1.0000 -0.0000 0.0074
vn 0.4469 0.0069 -0.8946
vn 0.6114 -0.1209 -0.7820
vn -0.5114 -0.1455 0.8469
vn 0.1585 0.9429 0.2929
vn -0.3026 -0.9510 -0.0628
vt 0.661208 0.212482
vt 0.668365 0.196712
vt 0.679444 0.198627
vt 0.676303 0.212101
vt 0.616909 0.426370
vt 0.619673 0.412814
vt 0.655367 0.412816
vt 0.658908 0.419510
vt 0.693691 0.157963
vt 0.692644 0.165464
vt 0.682507 0.166097
vt 0.680166 0.158952
vt 0.618651 0.372674
vt 0.617700 0.380132
vt 0.584111 0.383152
vt 0.580246 0.366271
vt 0.672268 0.107069
vt 0.692462 0.141156
vt 0.682010 0.141920
vt 0.661208 0.110845
vt 0.618651 0.355542
vt 0.581318 0.353372
vt 0.619674 0.441876
vt 0.658908 0.436362
vt 0.554731 0.422316
vt 0.569567 0.427604
vt 0.565179 0.446850
vt 0.549693 0.444728
vt 0.526815 0.424973
vt 0.539713 0.423899
vt 0.538959 0.446850
vt 0.526662 0.444062
vt 0.534209 0.369702
vt 0.528538 0.379920
vt 0.509794 0.376300
vt 0.514469 0.369702
s 1
usemtl Material.001
f 57/19/6 50/20/6 52/21/6 58/22/6
f 58/23/7 52/24/7 56/25/7 59/26/7
f 59/27/8 56/28/8 54/29/8 60/30/8
f 60/31/9 54/32/9 50/33/9 57/34/9
f 51/35/10 55/36/10 53/37/10 49/38/10
f 56/28/11 52/21/11 50/20/11 54/29/11
f 53/39/12 60/31/12 57/34/12 49/40/12
f 55/36/13 59/27/13 60/30/13 53/37/13
f 51/41/14 58/23/14 59/26/14 55/42/14
f 58/43/15 51/44/15 61/45/15 63/46/15
f 49/47/16 57/48/16 64/49/16 62/50/16
f 57/48/17 58/43/17 63/46/17 64/49/17
f 51/51/18 49/52/18 62/53/18 61/54/18
f 73/19/19 74/22/19 68/21/19 66/20/19
f 74/23/20 75/26/20 72/25/20 68/24/20
f 75/27/21 76/30/21 70/29/21 72/28/21
f 76/31/22 73/34/22 66/33/22 70/32/22
f 67/35/23 65/38/23 69/37/23 71/36/23
f 72/28/11 70/29/11 66/20/11 68/21/11
f 69/39/24 65/40/24 73/34/24 76/31/24
f 71/36/25 69/37/25 76/30/25 75/27/25
f 67/41/26 71/42/26 75/26/26 74/23/26
f 74/43/27 79/46/27 77/45/27 67/44/27
f 65/47/28 78/50/28 80/49/28 73/48/28
f 73/48/29 80/49/29 79/46/29 74/43/29
f 67/51/30 77/54/30 78/53/30 65/52/30
o Cylinder.001_Cylinder.002
v 0.892459 0.148814 2.287337
v 1.334060 0.036350 2.333035
v 0.922905 -0.323406 1.943536
v 1.355457 -0.295518 2.091418
v 0.941721 -0.615254 2.038561
v 1.376854 -0.627386 2.549143
v 0.941721 -0.615255 2.843617
v 0.904088 -0.031558 2.843617
v 1.342233 -0.090412 2.723979
v 0.892459 0.148814 2.594841
v 1.336641 -0.003670 2.038560
v 1.355457 -0.295518 1.943536
v 1.374274 -0.587366 2.038561
v 1.385903 -0.767738 2.287337
v 1.385903 -0.767738 2.594841
v 1.355457 -0.295518 2.938641
v 1.336641 -0.003670 2.843617
v 1.325011 0.176702 2.594841
v 1.218113 -0.110943 2.706770
v 1.210438 0.008108 2.542570
v 1.235197 0.008108 -1.450878
v 1.242873 -0.110943 -1.286677
v 1.255292 -0.303572 -1.223958
v 1.275388 -0.615252 -1.450877
v 1.275388 -0.615252 -1.653840
v 1.235197 0.008108 -1.653840
v 1.361400 -0.003670 -1.149830
v 1.380217 -0.295518 -1.054806
v 1.399034 -0.587366 -1.149830
v 1.410663 -0.767738 -1.398606
v 1.410663 -0.767738 -1.706111
v 1.380217 -0.295518 -2.049911
v 0.917218 0.148814 -1.398606
v 0.928847 -0.031558 -1.149830
v 1.380217 -0.295518 -1.202687
v 0.966481 -0.615255 -1.149830
v 1.401614 -0.627386 -1.444304
v 0.978110 -0.795626 -1.398606
v 0.978110 -0.795627 -1.706111
v 1.393441 -0.500624 -1.835248
v 1.366993 -0.090412 -1.835249
v 1.358820 0.036350 -1.660413
v 0.917218 0.148814 -1.706111
v 0.904088 -0.031558 2.038560
v 1.325011 0.176702 2.287337
v 0.953351 -0.795627 2.287337
v 0.953351 -0.795626 2.594841
v 1.374274 -0.587366 2.843617
v 0.922905 -0.323406 2.938641
v 1.342233 -0.090412 2.158199
v 1.368681 -0.500624 2.158199
v 1.376854 -0.627386 2.333035
v 1.368681 -0.500624 2.723979
v 1.355457 -0.295518 2.790760
v 1.334060 0.036350 2.549143
v 1.218113 -0.110943 2.175408
v 1.210438 0.008108 2.339608
v 1.230533 -0.303572 2.112689
v 1.242953 -0.496201 2.175408
v 1.250628 -0.615252 2.339608
v 1.250628 -0.615252 2.542570
v 1.242953 -0.496201 2.706770
v 1.230533 -0.303572 2.769489
v 0.928847 -0.031558 -1.954887
v 1.361400 -0.003670 -1.954887
v 1.349771 0.176702 -1.706111
v 0.947664 -0.323406 -2.049911
v 0.966481 -0.615254 -1.954887
v 1.399034 -0.587366 -1.954887
v 0.947664 -0.323406 -1.054806
v 1.349771 0.176702 -1.398606
v 1.380217 -0.295518 -1.902030
v 1.401614 -0.627386 -1.660413
v 1.393441 -0.500624 -1.269469
v 1.366993 -0.090412 -1.269469
v 1.358820 0.036350 -1.444304
v 1.242873 -0.110943 -1.818040
v 1.255292 -0.303572 -1.880759
v 1.267712 -0.496201 -1.818040
v 1.267712 -0.496201 -1.286677
v -0.892459 0.148814 2.287337
v -1.334060 0.036350 2.333035
v -0.922905 -0.323406 1.943536
v -1.355457 -0.295518 2.091418
v -0.941721 -0.615254 2.038561
v -1.376854 -0.627386 2.549143
v -0.941721 -0.615255 2.843617
v -0.904088 -0.031558 2.843617
v -1.342233 -0.090412 2.723979
v -0.892459 0.148814 2.594841
v -1.336641 -0.003670 2.038560
v -1.355457 -0.295518 1.943536
v -1.374274 -0.587366 2.038561
v -1.385903 -0.767738 2.287337
v -1.385903 -0.767738 2.594841
v -1.355457 -0.295518 2.938641
v -1.336641 -0.003670 2.843617
v -1.325011 0.176702 2.594841
v -1.218113 -0.110943 2.706770
v -1.210438 0.008108 2.542570
v -1.235197 0.008108 -1.450878
v -1.242873 -0.110943 -1.286677
v -1.255292 -0.303572 -1.223958
v -1.275388 -0.615252 -1.450877
v -1.275388 -0.615252 -1.653840
v -1.235197 0.008108 -1.653840
v -1.361400 -0.003670 -1.149830
v -1.380217 -0.295518 -1.054806
v -1.399034 -0.587366 -1.149830
v -1.410663 -0.767738 -1.398606
v -1.410663 -0.767738 -1.706111
v -1.380217 -0.295518 -2.049911
v -0.917218 0.148814 -1.398606
v -0.928847 -0.031558 -1.149830
v -1.380217 -0.295518 -1.202687
v -0.966481 -0.615255 -1.149830
v -1.401614 -0.627386 -1.444304
v -0.978110 -0.795626 -1.398606
v -0.978110 -0.795627 -1.706111
v -1.393441 -0.500624 -1.835248
v -1.366993 -0.090412 -1.835249
v -1.358820 0.036350 -1.660413
v -0.917218 0.148814 -1.706111
v -0.904088 -0.031558 2.038560
v -1.325011 0.176702 2.287337
v -0.953351 -0.795627 2.287337
v -0.953351 -0.795626 2.594841
v -1.374274 -0.587366 2.843617
v -0.922905 -0.323406 2.938641
v -1.342233 -0.090412 2.158199
v -1.368681 -0.500624 2.158199
v -1.376854 -0.627386 2.333035
v -1.368681 -0.500624 2.723979
v -1.355457 -0.295518 2.790760
v -1.334060 0.036350 2.549143
v -1.218113 -0.110943 2.175408
v -1.210438 0.008108 2.339608
v -1.230533 -0.303572 2.112689
v -1.242953 -0.496201 2.175408
v -1.250628 -0.615252 2.339608
v -1.250628 -0.615252 2.542570
v -1.242953 -0.496201 2.706770
v -1.230533 -0.303572 2.769489
v -0.928847 -0.031558 -1.954887
v -1.361400 -0.003670 -1.954887
v -1.349771 0.176702 -1.706111
v -0.947664 -0.323406 -2.049911
v -0.966481 -0.615254 -1.954887
v -1.399034 -0.587366 -1.954887
v -0.947664 -0.323406 -1.054806
v -1.349771 0.176702 -1.398606
v -1.380217 -0.295518 -1.902030
v -1.401614 -0.627386 -1.660413
v -1.393441 -0.500624 -1.269469
v -1.366993 -0.090412 -1.269469
v -1.358820 0.036350 -1.444304
v -1.242873 -0.110943 -1.818040
v -1.255292 -0.303572 -1.880759
v -1.267712 -0.496201 -1.818040
v -1.267712 -0.496201 -1.286677
vn -0.0521 0.8073 -0.5878
vn -0.0199 0.3084 -0.9511
vn 0.0199 -0.3084 -0.9511
vn 0.0521 -0.8073 -0.5878
vn 0.0643 -0.9979 -0.0000
vn 0.0521 -0.8073 0.5878
vn 0.0199 -0.3084 0.9511
vn -0.0199 0.3084 0.9511
vn -0.0521 0.8073 0.5878
vn -0.0643 0.9979 -0.0000
vn 0.9979 0.0643 -0.0000
vn 0.2106 -0.7867 0.5803
vn 0.1788 -0.2942 -0.9389
vn 0.0957 0.9954 -0.0000
vn 0.1788 -0.2942 0.9389
vn 0.2106 -0.7867 -0.5803
vn 0.1078 0.8073 -0.5803
vn 0.1396 0.3147 0.9389
vn 0.2227 -0.9749 -0.0000
vn 0.1078 0.8073 0.5803
vn 0.1396 0.3147 -0.9389
vn 0.0521 0.8073 -0.5878
vn 0.0199 0.3084 -0.9511
vn -0.0199 -0.3084 -0.9511
vn -0.0521 -0.8073 -0.5878
vn -0.0643 -0.9979 -0.0000
vn -0.0521 -0.8073 0.5878
vn -0.0199 -0.3084 0.9511
vn 0.0199 0.3084 0.9511
vn 0.0521 0.8073 0.5878
vn 0.0643 0.9979 -0.0000
vn -0.9979 0.0643 -0.0000
vn -0.2106 -0.7867 0.5803
vn -0.1788 -0.2942 -0.9389
vn -0.0957 0.9954 -0.0000
vn -0.1788 -0.2942 0.9389
vn -0.2106 -0.7867 -0.5803
vn -0.1078 0.8073 -0.5803
vn -0.1396 0.3147 0.9389
vn -0.2227 -0.9749 -0.0000
vn -0.1078 0.8073 0.5803
vn -0.1396 0.3147 -0.9389
vt 0.065973 0.646842
vt 0.017213 0.646842
vt 0.017213 0.612250
vt 0.065973 0.612250
vt 0.017213 0.577658
vt 0.065973 0.577658
vt 0.017213 0.543065
vt 0.065973 0.543065
vt 0.017213 0.508473
vt 0.065973 0.508473
vt 0.017213 0.473881
vt 0.065973 0.473881
vt 0.100268 0.479741
vt 0.149028 0.479741
vt 0.149028 0.514333
vt 0.100268 0.514333
vt 0.149028 0.548925
vt 0.100268 0.548925
vt 0.149028 0.583517
vt 0.100268 0.583517
vt 0.149028 0.618109
vt 0.100268 0.618109
vt 0.149028 0.652701
vt 0.100268 0.652701
vt 0.313470 0.752042
vt 0.336591 0.744529
vt 0.346369 0.757988
vt 0.313470 0.768677
vt 0.350881 0.724861
vt 0.366702 0.730002
vt 0.350881 0.700551
vt 0.366702 0.695410
vt 0.336591 0.680883
vt 0.346369 0.667424
vt 0.313470 0.673370
vt 0.313470 0.656735
vt 0.290349 0.680883
vt 0.280571 0.667424
vt 0.276060 0.700551
vt 0.260238 0.695410
vt 0.276060 0.724861
vt 0.260238 0.730002
vt 0.290349 0.744529
vt 0.280571 0.757988
vt 0.240136 0.589850
vt 0.240136 0.613406
vt 0.225861 0.613406
vt 0.225861 0.589850
vt 0.184893 0.561411
vt 0.184893 0.537855
vt 0.199168 0.537855
vt 0.199168 0.561411
vt 0.240136 0.495625
vt 0.240136 0.519182
vt 0.225861 0.519182
vt 0.225861 0.495625
vt 0.240136 0.566294
vt 0.225861 0.566294
vt 0.184893 0.584967
vt 0.199168 0.584967
vt 0.184893 0.514299
vt 0.184893 0.490743
vt 0.199168 0.490743
vt 0.199168 0.514299
vt 0.240136 0.542738
vt 0.225861 0.542738
vt 0.184893 0.608523
vt 0.199168 0.608523
vt 0.041590 0.795779
vt 0.028170 0.777308
vt 0.028170 0.754476
vt 0.041590 0.736005
vt 0.063305 0.728949
vt 0.085019 0.736005
vt 0.098439 0.754476
vt 0.098439 0.777308
vt 0.085019 0.795779
vt 0.063305 0.802835
s 1
usemtl Material.001
f 81/55/31 125/56/31 91/57/31 124/58/31
f 124/58/32 91/57/32 92/59/32 83/60/32
f 83/60/33 92/59/33 93/61/33 85/62/33
f 85/62/34 93/61/34 94/63/34 126/64/34
f 126/64/35 94/63/35 95/65/35 127/66/35
f 127/67/36 95/68/36 128/69/36 87/70/36
f 87/70/37 128/69/37 96/71/37 129/72/37
f 129/72/38 96/71/38 97/73/38 88/74/38
f 88/74/39 97/73/39 98/75/39 90/76/39
f 90/76/40 98/75/40 125/77/40 81/78/40
f 82/79/41 130/80/41 91/81/41 125/82/41
f 130/80/41 84/83/41 92/84/41 91/81/41
f 84/83/41 131/85/41 93/86/41 92/84/41
f 131/85/41 132/87/41 94/88/41 93/86/41
f 132/87/41 86/89/41 95/90/41 94/88/41
f 86/89/41 133/91/41 128/92/41 95/90/41
f 133/91/41 134/93/41 96/94/41 128/92/41
f 134/93/41 89/95/41 97/96/41 96/94/41
f 89/95/41 135/97/41 98/98/41 97/96/41
f 135/97/41 82/79/41 125/82/41 98/98/41
f 130/99/42 82/100/42 137/101/42 136/102/42
f 89/103/43 134/104/43 143/105/43 99/106/43
f 86/107/44 132/108/44 140/109/44 141/110/44
f 84/111/45 130/99/45 136/102/45 138/112/45
f 135/113/46 89/103/46 99/106/46 100/114/46
f 133/115/47 86/116/47 141/117/47 142/118/47
f 131/119/48 84/111/48 138/112/48 139/120/48
f 82/121/49 135/113/49 100/114/49 137/122/49
f 122/121/49 156/113/49 101/114/49 106/122/49
f 120/119/48 152/111/48 158/112/48 159/120/48
f 154/115/47 117/116/47 104/117/47 160/118/47
f 156/113/46 155/103/46 102/106/46 101/114/46
f 152/111/45 121/99/45 157/102/45 158/112/45
f 117/107/44 153/108/44 105/109/44 104/110/44
f 155/103/43 115/104/43 103/105/43 102/106/43
f 121/99/42 122/100/42 106/101/42 157/102/42
f 153/108/50 120/119/50 159/120/50 105/109/50
f 157/123/41 106/124/41 101/125/41 102/126/41 103/127/41 160/128/41 104/129/41 105/130/41 159/131/41 158/132/41
f 156/97/41 122/79/41 146/82/41 151/98/41
f 155/95/41 156/97/41 151/98/41 107/96/41
f 115/93/41 155/95/41 107/96/41 108/94/41
f 154/91/41 115/93/41 108/94/41 109/92/41
f 117/89/41 154/91/41 109/92/41 110/90/41
f 153/87/41 117/89/41 110/90/41 111/88/41
f 120/85/41 153/87/41 111/88/41 149/86/41
f 152/83/41 120/85/41 149/86/41 112/84/41
f 121/80/41 152/83/41 112/84/41 145/81/41
f 122/79/41 121/80/41 145/81/41 146/82/41
f 113/76/40 151/75/40 146/77/40 123/78/40
f 114/74/39 107/73/39 151/75/39 113/76/39
f 115/104/51 154/115/51 160/118/51 103/105/51
f 150/72/38 108/71/38 107/73/38 114/74/38
f 116/70/37 109/69/37 108/71/37 150/72/37
f 118/67/36 110/68/36 109/69/36 116/70/36
f 119/64/35 111/63/35 110/65/35 118/66/35
f 148/62/34 149/61/34 111/63/34 119/64/34
f 147/60/33 112/59/33 149/61/33 148/62/33
f 144/58/32 145/57/32 112/59/32 147/60/32
f 123/55/31 146/56/31 145/57/31 144/58/31
f 134/104/51 133/115/51 142/118/51 143/105/51
f 136/123/41 137/124/41 100/125/41 99/126/41 143/127/41 142/128/41 141/129/41 140/130/41 139/131/41 138/132/41
f 132/108/50 131/119/50 139/120/50 140/109/50
f 161/55/52 204/58/52 171/57/52 205/56/52
f 204/58/53 163/60/53 172/59/53 171/57/53
f 163/60/54 165/62/54 173/61/54 172/59/54
f 165/62/55 206/64/55 174/63/55 173/61/55
f 206/64/56 207/66/56 175/65/56 174/63/56
f 207/67/57 167/70/57 208/69/57 175/68/57
f 167/70/58 209/72/58 176/71/58 208/69/58
f 209/72/59 168/74/59 177/73/59 176/71/59
f 168/74/60 170/76/60 178/75/60 177/73/60
f 170/76/61 161/78/61 205/77/61 178/75/61
f 162/79/62 205/82/62 171/81/62 210/80/62
f 210/80/62 171/81/62 172/84/62 164/83/62
f 164/83/62 172/84/62 173/86/62 211/85/62
f 211/85/62 173/86/62 174/88/62 212/87/62
f 212/87/62 174/88/62 175/90/62 166/89/62
f 166/89/62 175/90/62 208/92/62 213/91/62
f 213/91/62 208/92/62 176/94/62 214/93/62
f 214/93/62 176/94/62 177/96/62 169/95/62
f 169/95/62 177/96/62 178/98/62 215/97/62
f 215/97/62 178/98/62 205/82/62 162/79/62
f 210/99/63 216/102/63 217/101/63 162/100/63
f 169/103/64 179/106/64 223/105/64 214/104/64
f 166/107/65 221/110/65 220/109/65 212/108/65
f 164/111/66 218/112/66 216/102/66 210/99/66
f 215/113/67 180/114/67 179/106/67 169/103/67
f 213/115/68 222/118/68 221/117/68 166/116/68
f 211/119/69 219/120/69 218/112/69 164/111/69
f 162/121/70 217/122/70 180/114/70 215/113/70
f 202/121/70 186/122/70 181/114/70 236/113/70
f 200/119/69 239/120/69 238/112/69 232/111/69
f 234/115/68 240/118/68 184/117/68 197/116/68
f 236/113/67 181/114/67 182/106/67 235/103/67
f 232/111/66 238/112/66 237/102/66 201/99/66
f 197/107/65 184/110/65 185/109/65 233/108/65
f 235/103/64 182/106/64 183/105/64 195/104/64
f 201/99/63 237/102/63 186/101/63 202/100/63
f 233/108/71 185/109/71 239/120/71 200/119/71
f 237/123/62 238/132/62 239/131/62 185/130/62 184/129/62 240/128/62 183/127/62 182/126/62 181/125/62 186/124/62
f 236/97/62 231/98/62 226/82/62 202/79/62
f 235/95/62 187/96/62 231/98/62 236/97/62
f 195/93/62 188/94/62 187/96/62 235/95/62
f 234/91/62 189/92/62 188/94/62 195/93/62
f 197/89/62 190/90/62 189/92/62 234/91/62
f 233/87/62 191/88/62 190/90/62 197/89/62
f 200/85/62 229/86/62 191/88/62 233/87/62
f 232/83/62 192/84/62 229/86/62 200/85/62
f 201/80/62 225/81/62 192/84/62 232/83/62
f 202/79/62 226/82/62 225/81/62 201/80/62
f 193/76/61 203/78/61 226/77/61 231/75/61
f 194/74/60 193/76/60 231/75/60 187/73/60
f 195/104/72 183/105/72 240/118/72 234/115/72
f 230/72/59 194/74/59 187/73/59 188/71/59
f 196/70/58 230/72/58 188/71/58 189/69/58
f 198/67/57 196/70/57 189/69/57 190/68/57
f 199/64/56 198/66/56 190/65/56 191/63/56
f 228/62/55 199/64/55 191/63/55 229/61/55
f 227/60/54 228/62/54 229/61/54 192/59/54
f 224/58/53 227/60/53 192/59/53 225/57/53
f 203/55/52 224/58/52 225/57/52 226/56/52
f 214/104/72 223/105/72 222/118/72 213/115/72
f 216/123/62 218/132/62 219/131/62 220/130/62 221/129/62 222/128/62 223/127/62 179/126/62 180/125/62 217/124/62
f 212/108/71 220/109/71 219/120/71 211/119/71
o Plane.002
v 1.085456 0.223767 3.425321
v 1.151921 0.499124 1.499699
v 0.000000 0.212690 3.736548
v 0.000000 0.543901 1.847851
v 0.562334 0.218092 3.666404
v 0.603609 0.523996 1.794540
v 1.149925 0.452814 2.148866
v 0.000000 0.503487 2.489724
v 0.600726 0.489221 2.430248
v 1.135134 0.381699 2.795533
v 0.000000 0.419165 3.128196
v 0.590262 0.406845 3.059745
v 1.056970 0.005380 3.547611
v 0.574353 0.005380 3.749994
v 0.000000 0.005380 3.792461
v 1.082613 -0.036380 3.652013
v 0.605157 -0.036380 3.838778
v 0.000000 -0.036380 3.902358
v 1.377759 0.124605 2.665938
v 1.367074 0.001852 2.858997
v 1.375961 0.173758 2.398897
v 1.363233 0.239251 1.958494
v 1.322200 0.292149 1.518128
v 0.000000 1.087027 0.788199
v 0.421247 1.083806 0.750618
v 0.821856 1.058785 0.618766
v 1.151921 0.559893 -1.276665
v 0.840482 1.072870 -0.665182
v 1.092313 0.607368 -1.808390
v 0.600537 0.633961 -2.101791
v 0.000000 0.641656 -2.116031
v 0.000000 1.099193 -1.107020
v 0.787943 1.070400 -1.021986
v 0.397337 1.084993 -1.088489
v 1.151921 0.541638 -0.442673
v 0.843950 1.065827 -0.023125
v 1.281160 0.374525 -0.490149
v 1.173461 0.429216 -2.817079
v 1.066146 0.565946 -2.734177
v 1.267486 0.392778 -1.266755
v 0.000000 0.584408 -2.860792
v 0.000000 0.429216 -2.937365
v 0.539895 0.576647 -2.843048
v 0.592651 0.429216 -2.923021
v 1.235258 0.411018 -2.042802
v 1.356390 -0.205216 2.950037
v 1.060469 -0.178587 3.690466
v 0.000000 -0.178587 3.925279
v 1.242292 0.189474 3.194374
v 1.228049 0.005380 3.421480
v 1.267627 0.309752 2.640599
v 1.258796 0.361145 2.057838
v 1.237060 0.395637 1.508914
v 1.221983 0.458082 -0.466411
v 1.119803 0.497581 -2.775628
v 1.212192 0.474484 -1.237280
v 0.000000 0.506812 -2.899079
v 0.566240 0.502906 -2.883010
v 1.161461 0.511041 -2.005690
v 1.227161 -0.178587 3.576210
v 1.227244 -0.036381 3.555224
v 0.609965 -0.178587 3.860032
v 1.356390 -0.460166 2.991860
v 1.208131 -0.462346 3.497084
v 1.043186 -0.462346 3.583368
v 0.000000 -0.462346 3.766284
v 0.566324 -0.462346 3.724092
v 1.201537 -0.593357 3.561954
v 1.043186 -0.593357 3.648237
v 0.000000 -0.593357 3.831154
v 0.529777 -0.593357 3.799747
v 1.353856 -0.593357 2.991860
v 1.308505 0.315803 -2.771119
v 1.373420 0.301887 -2.132210
v 1.393590 0.290561 -1.490248
v 1.359565 0.297648 -0.848946
v 0.000000 1.146289 0.634557
v 0.395557 1.144046 0.602794
v 0.752391 1.118048 0.465124
v 0.000000 1.183669 0.005705
v 0.383480 1.171210 -0.024034
v 0.760301 1.135715 -0.079135
v 0.761564 1.134300 -0.623608
v 0.000000 1.162144 -0.965805
v 0.709963 1.133352 -0.880771
v 0.364670 1.147945 -0.947274
v 0.000000 1.184012 -0.623608
v 0.381735 1.172697 -0.623608
v 1.285420 -0.548102 1.471088
v 1.310482 -0.546717 1.838000
v 1.323319 -0.406182 1.838000
v 1.342254 -0.198893 1.894448
v 1.370496 0.110283 2.179922
v 1.357819 -0.028495 2.001366
v 1.337818 0.055031 1.804750
v 1.301182 -0.268933 1.503818
v 1.313115 0.011221 1.524135
v 1.322403 -0.150317 1.686808
v 1.285420 -0.548102 -0.323959
v 1.333892 -0.548102 -0.975933
v 1.283290 -0.220853 -0.463502
v 1.282225 0.045084 -0.492701
v 1.402233 0.171283 -1.505368
v 1.387944 0.041439 -1.975459
v 1.272145 -0.414038 -2.168398
v 1.394736 0.160405 -1.756016
v 1.374295 -0.068069 -1.084906
v 1.391170 0.104686 -1.265662
v 1.356045 -0.298839 -0.990378
v 1.361583 -0.174396 -2.097573
v 1.305886 -0.548102 -0.649946
v 1.319252 -0.259846 -0.726940
v 1.337442 -0.011492 -0.788804
v 1.149745 -0.339818 -2.668219
v 1.278152 -0.082567 -2.713789
v 1.222683 -0.372697 -2.446799
v 1.332320 -0.123247 -2.440805
v 1.358825 0.109900 -2.368828
v 1.305387 0.116618 -2.742454
v 0.000000 0.161899 -2.986138
v 0.590583 0.161899 -2.965026
v 1.177181 0.161899 -2.861491
v 1.202361 0.111096 -2.940071
v 0.604153 0.111096 -3.025413
v 0.000000 0.111096 -3.056038
v 1.190112 -0.068495 -2.919985
v 0.604153 -0.068495 -3.014779
v 0.000000 -0.068495 -3.045404
v 1.086610 -0.320868 -2.786709
v 0.000000 -0.320868 -2.939835
v 0.547559 -0.320868 -2.905570
v 0.767124 0.124605 2.665938
v 0.767124 0.001852 2.858997
v 0.767124 0.173758 2.398897
v 0.767124 -0.205216 2.950037
v 0.767124 -0.460166 2.991860
v 0.767124 -0.593357 2.991860
v 0.767124 -0.546717 1.838000
v 0.767124 -0.406182 1.838000
v 0.767124 -0.198893 1.894448
v 0.767124 0.110283 2.179922
v 0.767124 -0.028495 2.001366
v 0.767124 -0.548102 -0.975933
v 0.767124 0.171283 -1.505368
v 0.767124 0.041439 -1.975459
v 0.767124 -0.414038 -2.168398
v 0.767124 0.160405 -1.756016
v 0.767124 -0.068069 -1.084906
v 0.767124 0.104686 -1.265662
v 0.767124 -0.298839 -0.990378
v 0.767124 -0.174396 -2.097573
v 0.000000 -0.593357 3.648237
v 0.000000 -0.593357 2.991860
v 0.000000 -0.546717 1.838000
v 0.000000 -0.414038 -2.168398
v 0.000000 -0.548102 -0.975933
v 0.731019 -0.547410 0.431033
v 0.000000 -0.547410 0.431033
v 0.736871 -0.547756 -0.272450
v 0.000000 -0.547756 -0.272450
v 0.000000 -0.339818 -2.668219
v 0.000000 -0.372697 -2.446799
v 0.000000 0.748063 -2.624535
v 0.908764 0.748063 -2.555777
v 0.000000 0.772255 -2.876959
v 0.908764 0.772255 -2.808202
v 1.014266 0.556110 -2.298099
v 1.006070 0.556110 -2.715536
v 0.527592 0.748063 -2.604505
v 0.527592 0.772255 -2.856929
v 0.771915 0.748063 -2.573272
v 0.771915 0.772255 -2.825696
v 0.000000 -0.178587 3.578825
v 0.609965 -0.178587 3.513579
v 0.000000 -0.462346 3.419831
v 0.566324 -0.462346 3.377639
v 0.805304 -0.235499 -3.038481
v 0.805304 -0.235499 -2.638480
v 0.910857 -0.312188 -3.038481
v 0.910857 -0.312188 -2.638480
v 0.870539 -0.436272 -3.038481
v 0.870539 -0.436272 -2.638480
v 0.740069 -0.436272 -3.038481
v 0.740069 -0.436272 -2.638480
v 0.699752 -0.312188 -3.038481
v 0.699752 -0.312188 -2.638480
v 1.023368 -0.295437 -2.638480
v 0.805304 -0.181292 -2.638480
v 1.008613 -0.480126 -2.638480
v 0.601996 -0.480126 -2.638480
v 0.587241 -0.295437 -2.638480
v 1.023368 -0.295437 -2.179692
v 0.805304 -0.181292 -2.179692
v 1.008613 -0.480126 -2.179692
v 0.601996 -0.480126 -2.179692
v 0.587241 -0.295437 -2.179692
v -1.085456 0.223767 3.425321
v -1.151921 0.499124 1.499699
v -0.562334 0.218092 3.666404
v -0.603609 0.523996 1.794540
v -1.149925 0.452814 2.148866
v -0.600726 0.489221 2.430248
v -1.135134 0.381699 2.795533
v -0.590262 0.406845 3.059745
v -1.056970 0.005380 3.547611
v -0.574353 0.005380 3.749994
v -1.082613 -0.036380 3.652013
v -0.605157 -0.036380 3.838778
v -1.377759 0.124605 2.665938
v -1.367074 0.001852 2.858997
v -1.375961 0.173758 2.398897
v -1.363233 0.239251 1.958494
v -1.322200 0.292149 1.518128
v -0.421247 1.083806 0.750618
v -0.821856 1.058785 0.618766
v -1.151921 0.559893 -1.276665
v -0.840482 1.072870 -0.665182
v -1.092313 0.607368 -1.808390
v -0.600537 0.633961 -2.101791
v -0.787943 1.070400 -1.021986
v -0.397337 1.084993 -1.088489
v -1.151921 0.541638 -0.442673
v -0.843950 1.065827 -0.023125
v -1.281160 0.374525 -0.490149
v -1.173461 0.429216 -2.817079
v -1.066146 0.565946 -2.734177
v -1.267486 0.392778 -1.266755
v -0.539895 0.576647 -2.843048
v -0.592651 0.429216 -2.923021
v -1.235258 0.411018 -2.042802
v -1.356390 -0.205216 2.950037
v -1.060469 -0.178587 3.690466
v -1.242292 0.189474 3.194374
v -1.228049 0.005380 3.421480
v -1.267627 0.309752 2.640599
v -1.258796 0.361145 2.057838
v -1.237060 0.395637 1.508914
v -1.221983 0.458082 -0.466411
v -1.119803 0.497581 -2.775628
v -1.212192 0.474484 -1.237280
v -0.566240 0.502906 -2.883010
v -1.161461 0.511041 -2.005690
v -1.227161 -0.178587 3.576210
v -1.227244 -0.036381 3.555224
v -0.609965 -0.178587 3.860032
v -1.356390 -0.460166 2.991860
v -1.208131 -0.462346 3.497084
v -1.043186 -0.462346 3.583368
v -0.566324 -0.462346 3.724092
v -1.201537 -0.593357 3.561954
v -1.043186 -0.593357 3.648237
v -0.529777 -0.593357 3.799747
v -1.353856 -0.593357 2.991860
v -1.308505 0.315803 -2.771119
v -1.373420 0.301887 -2.132210
v -1.393590 0.290561 -1.490248
v -1.359565 0.297648 -0.848946
v -0.395557 1.144046 0.602794
v -0.752391 1.118048 0.465124
v -0.383480 1.171210 -0.024034
v -0.760301 1.135715 -0.079135
v -0.761564 1.134300 -0.623608
v -0.709963 1.133352 -0.880771
v -0.364670 1.147945 -0.947274
v -0.381735 1.172697 -0.623608
v -1.285420 -0.548102 1.471088
v -1.310482 -0.546717 1.838000
v -1.323319 -0.406182 1.838000
v -1.342254 -0.198893 1.894448
v -1.370496 0.110283 2.179922
v -1.357819 -0.028495 2.001366
v -1.337818 0.055031 1.804750
v -1.301182 -0.268933 1.503818
v -1.313115 0.011221 1.524135
v -1.322403 -0.150317 1.686808
v -1.285420 -0.548102 -0.323959
v -1.333892 -0.548102 -0.975933
v -1.283290 -0.220853 -0.463502
v -1.282225 0.045084 -0.492701
v -1.402233 0.171283 -1.505368
v -1.387944 0.041439 -1.975459
v -1.272145 -0.414038 -2.168398
v -1.394736 0.160405 -1.756016
v -1.374295 -0.068069 -1.084906
v -1.391170 0.104686 -1.265662
v -1.356045 -0.298839 -0.990378
v -1.361583 -0.174396 -2.097573
v -1.305886 -0.548102 -0.649946
v -1.319252 -0.259846 -0.726940
v -1.337442 -0.011492 -0.788804
v -1.149745 -0.339818 -2.668219
v -1.278152 -0.082567 -2.713789
v -1.222683 -0.372697 -2.446799
v -1.332320 -0.123247 -2.440805
v -1.358825 0.109900 -2.368828
v -1.305387 0.116618 -2.742454
v -0.590583 0.161899 -2.965026
v -1.177181 0.161899 -2.861491
v -1.202361 0.111096 -2.940071
v -0.604153 0.111096 -3.025413
v -1.190112 -0.068495 -2.919985
v -0.604153 -0.068495 -3.014779
v -1.086610 -0.320868 -2.786709
v -0.547559 -0.320868 -2.905570
v -0.767124 0.124605 2.665938
v -0.767124 0.001852 2.858997
v -0.767124 0.173758 2.398897
v -0.767124 -0.205216 2.950037
v -0.767124 -0.460166 2.991860
v -0.767124 -0.593357 2.991860
v -0.767124 -0.546717 1.838000
v -0.767124 -0.406182 1.838000
v -0.767124 -0.198893 1.894448
v -0.767124 0.110283 2.179922
v -0.767124 -0.028495 2.001366
v -0.767124 -0.548102 -0.975933
v -0.767124 0.171283 -1.505368
v -0.767124 0.041439 -1.975459
v -0.767124 -0.414038 -2.168398
v -0.767124 0.160405 -1.756016
v -0.767124 -0.068069 -1.084906
v -0.767124 0.104686 -1.265662
v -0.767124 -0.298839 -0.990378
v -0.767124 -0.174396 -2.097573
v -0.731019 -0.547410 0.431033
v -0.736871 -0.547756 -0.272450
v -0.908764 0.748063 -2.555777
v -0.908764 0.772255 -2.808202
v -1.014266 0.556110 -2.298099
v -1.006070 0.556110 -2.715536
v -0.527592 0.748063 -2.604505
v -0.527592 0.772255 -2.856929
v -0.771915 0.748063 -2.573272
v -0.771915 0.772255 -2.825696
v -0.609965 -0.178587 3.513579
v -0.566324 -0.462346 3.377639
v -0.805304 -0.235499 -3.038481
v -0.805304 -0.235499 -2.638480
v -0.910857 -0.312188 -3.038481
v -0.910857 -0.312188 -2.638480
v -0.870539 -0.436272 -3.038481
v -0.870539 -0.436272 -2.638480
v -0.740069 -0.436272 -3.038481
v -0.740069 -0.436272 -2.638480
v -0.699752 -0.312188 -3.038481
v -0.699752 -0.312188 -2.638480
v -1.023368 -0.295437 -2.638480
v -0.805304 -0.181292 -2.638480
v -1.008613 -0.480126 -2.638480
v -0.601996 -0.480126 -2.638480
v -0.587241 -0.295437 -2.638480
v -1.023368 -0.295437 -2.179692
v -0.805304 -0.181292 -2.179692
v -1.008613 -0.480126 -2.179692
v -0.601996 -0.480126 -2.179692
v -0.587241 -0.295437 -2.179692
vn 0.1157 0.9859 0.1209
vn 0.0338 0.9977 0.0588
vn 0.3699 0.3888 0.8438
vn 0.0361 0.9908 0.1306
vn 0.7668 0.6418 0.0080
vn 0.2427 0.8653 0.4386
vn 0.0430 0.9498 0.3099
vn 0.1446 0.9229 0.3568
vn 0.0920 0.3162 0.9442
vn 0.1477 0.9499 0.2756
vn 0.0344 0.9232 0.3828
vn 0.8440 0.5200 0.1315
vn 0.8024 0.5946 0.0510
vn 0.7700 0.6378 0.0141
vn 0.7954 0.6020 -0.0699
vn 0.3532 0.1715 0.9197
vn 0.0607 0.8862 0.4594
vn 0.8610 0.5085 0.0083
vn 0.8589 0.5119 0.0156
vn 0.8614 0.5078 0.0067
vn 0.8111 0.5845 -0.0228
vn 0.2037 0.8949 -0.3971
vn 0.0313 0.4632 -0.8857
vn 0.0284 0.4632 -0.8858
vn 0.0320 0.4634 -0.8856
vn 0.8584 0.5126 0.0172
vn 0.7635 0.6438 -0.0514
vn 0.8221 0.5693 0.0003
vn 0.1706 0.5604 -0.8105
vn 0.0157 0.9969 -0.0775
vn 0.0611 0.9962 -0.0622
vn 0.0248 0.4629 -0.8861
vn 0.9472 0.2297 0.2239
vn 0.6834 0.4359 0.5857
vn 0.1561 0.5561 -0.8163
vn 0.7914 0.6112 0.0084
vn 0.7848 0.6177 -0.0507
vn 0.8019 0.5967 -0.0295
vn 0.7921 0.6103 0.0110
vn 0.6146 0.7846 0.0812
vn 0.5819 0.7827 0.2209
vn 0.7161 0.6971 0.0352
vn 0.2142 0.9285 0.3033
vn 0.7828 0.5926 0.1898
vn 0.5565 0.1281 0.8209
vn 0.9793 0.0338 0.1995
vn 0.2904 -0.4029 0.8680
vn 0.1042 0.1544 0.9825
vn 0.0806 -0.4645 0.8819
vn 0.9697 -0.0508 0.2389
vn 0.4937 -0.2995 0.8164
vn 0.2557 0.4290 0.8664
vn 0.4334 0.3911 0.8119
vn 0.0593 0.4654 0.8831
vn 0.9625 0.0328 0.2691
vn 0.0886 0.9941 0.0631
vn 0.0334 0.9129 -0.4068
vn 0.6274 0.7777 -0.0386
vn 0.6198 0.7847 -0.0065
vn 0.6834 0.7298 0.0156
vn 0.1748 0.9330 0.3147
vn 0.0373 0.9301 0.3655
vn 0.0933 0.9949 0.0378
vn 0.0229 0.9984 0.0511
vn 0.6185 0.7852 0.0320
vn 0.0536 0.9143 -0.4014
vn 0.1036 0.9229 -0.3708
vn 0.5462 0.8320 -0.0973
vn 0.6282 0.7780 0.0025
vn 0.0776 0.9956 -0.0532
vn 0.0358 0.9969 -0.0707
vn 0.0972 0.9953 -0.0000
vn 0.0311 0.9995 0.0014
vn 0.9978 -0.0560 -0.0355
vn 0.9989 -0.0402 -0.0224
vn 0.9976 -0.0689 -0.0113
vn 0.9959 -0.0895 -0.0093
vn 0.9992 -0.0384 -0.0138
vn 0.9957 -0.0311 -0.0877
vn 0.9953 -0.0462 -0.0855
vn 0.9936 -0.0908 -0.0675
vn 0.9947 -0.0703 -0.0756
vn 0.9941 -0.0335 -0.1029
vn 0.9950 0.0044 -0.0994
vn 0.9976 -0.0400 -0.0560
vn 0.9948 -0.0448 -0.0913
vn 0.9926 -0.0465 0.1122
vn 0.9903 -0.0310 0.1356
vn 0.9869 -0.0043 0.1615
vn 0.9954 0.0150 0.0943
vn 0.9941 -0.0278 0.1052
vn 0.9792 -0.0140 0.2026
vn 0.9971 0.0530 0.0546
vn 0.9969 0.0718 -0.0309
vn 0.9997 -0.0234 -0.0051
vn 0.9997 -0.0232 -0.0058
vn 0.9997 -0.0241 -0.0057
vn 0.9997 -0.0197 -0.0126
vn 0.9997 -0.0166 -0.0155
vn 0.9997 -0.0132 -0.0182
vn 0.8590 -0.4258 -0.2842
vn 0.9219 -0.3488 -0.1686
vn 0.9797 -0.1047 -0.1707
vn 0.9931 0.0166 -0.1157
vn 0.9928 -0.0774 -0.0913
vn 0.9980 0.0195 -0.0601
vn 0.0295 0.1672 -0.9855
vn 0.1744 0.1576 -0.9720
vn 0.5621 0.7650 -0.3144
vn 0.0265 0.7896 -0.6130
vn 0.0910 0.8158 -0.5711
vn 0.0505 -0.0590 -0.9970
vn 0.1498 -0.0893 -0.9847
vn 0.8928 -0.1478 -0.4256
vn 0.5434 0.0290 -0.8390
vn 0.7685 -0.4929 -0.4080
vn 0.1648 -0.4691 -0.8676
vn 0.0517 -0.3959 -0.9168
vn 0.9750 -0.2170 -0.0482
vn 0.9951 -0.0993 -0.0021
vn 0.9967 -0.0812 0.0027
vn 0.9729 -0.2304 -0.0191
vn -0.0000 -0.2627 0.9649
vn -0.0000 -0.4924 0.8704
vn -0.0000 -0.4025 -0.9154
vn -0.0000 -0.9635 -0.2677
vn -0.0000 -0.8791 0.4766
vn -0.0000 -0.2834 0.9590
vn -0.0000 -0.0000 1.0000
vn -0.0000 -0.9991 0.0434
vn -0.0000 -0.1619 -0.9868
vn -0.0000 -0.5315 0.8471
vn -0.0000 -0.8439 -0.5366
vn -0.0000 -0.3791 -0.9254
vn -0.0000 -0.7896 0.6137
vn -0.0000 -0.7229 -0.6909
vn -0.0000 -0.0000 -1.0000
vn -0.0000 -0.9605 0.2784
vn -0.0000 -0.0579 -0.9983
vn -0.0000 -0.9835 -0.1810
vn -0.0000 -1.0000 -0.0000
vn 1.0000 -0.0000 -0.0000
vn -0.0000 -0.9992 -0.0404
vn -0.0000 -0.9937 -0.1117
vn -0.0000 -1.0000 0.0005
vn -0.0001 -1.0000 0.0003
vn -0.0004 -1.0000 0.0004
vn -0.0012 -1.0000 0.0011
vn -0.0009 -1.0000 0.0009
vn -0.0003 -1.0000 0.0002
vn -0.0007 -1.0000 0.0002
vn -0.0013 -1.0000 0.0004
vn -0.0018 -1.0000 0.0012
vn -0.0000 -0.9892 -0.1469
vn 0.0068 -0.9953 -0.0967
vn -0.0000 -0.9976 -0.0696
vn 0.0044 -0.9976 -0.0696
vn -0.0122 0.9954 0.0954
vn 0.8937 0.4487 0.0053
vn -0.0000 0.9954 0.0954
vn -0.0038 0.9954 0.0954
vn -0.0119 0.9954 0.0954
vn 0.0805 -0.4645 0.8819
vn -0.9884 0.1520 -0.0000
vn -0.0000 1.0000 -0.0000
vn 0.5878 0.8090 -0.0000
vn 0.9511 -0.3090 -0.0000
vn -0.9511 -0.3090 -0.0000
vn -0.5878 0.8090 -0.0000
vn -0.4638 0.8860 -0.0000
vn 0.4638 0.8860 -0.0000
vn -0.9968 -0.0796 -0.0000
vn 0.9968 -0.0796 -0.0000
vn -0.1157 0.9859 0.1209
vn -0.0338 0.9977 0.0588
vn -0.3699 0.3888 0.8438
vn -0.0361 0.9908 0.1306
vn -0.7668 0.6418 0.0080
vn -0.2427 0.8653 0.4386
vn -0.0430 0.9498 0.3099
vn -0.1446 0.9229 0.3568
vn -0.0920 0.3162 0.9442
vn -0.1477 0.9499 0.2756
vn -0.0344 0.9232 0.3828
vn -0.8440 0.5200 0.1315
vn -0.8024 0.5946 0.0510
vn -0.7700 0.6378 0.0141
vn -0.7954 0.6020 -0.0699
vn -0.3532 0.1715 0.9197
vn -0.0607 0.8862 0.4594
vn -0.8610 0.5085 0.0083
vn -0.8614 0.5078 0.0067
vn -0.8589 0.5119 0.0156
vn -0.8111 0.5845 -0.0228
vn -0.2037 0.8949 -0.3971
vn -0.0313 0.4632 -0.8857
vn -0.0320 0.4634 -0.8856
vn -0.0284 0.4632 -0.8858
vn -0.8584 0.5126 0.0172
vn -0.7635 0.6438 -0.0514
vn -0.8221 0.5693 0.0003
vn -0.1706 0.5604 -0.8105
vn -0.0157 0.9969 -0.0775
vn -0.0611 0.9962 -0.0622
vn -0.0248 0.4629 -0.8861
vn -0.9472 0.2297 0.2239
vn -0.6834 0.4359 0.5857
vn -0.1561 0.5561 -0.8163
vn -0.7914 0.6112 0.0084
vn -0.7848 0.6177 -0.0507
vn -0.8019 0.5967 -0.0295
vn -0.7921 0.6103 0.0110
vn -0.6146 0.7846 0.0812
vn -0.5819 0.7827 0.2209
vn -0.7161 0.6971 0.0352
vn -0.2142 0.9285 0.3033
vn -0.7828 0.5926 0.1898
vn -0.5565 0.1281 0.8209
vn -0.9793 0.0338 0.1995
vn -0.2904 -0.4029 0.8680
vn -0.1042 0.1544 0.9825
vn -0.0806 -0.4645 0.8819
vn -0.9697 -0.0508 0.2389
vn -0.4937 -0.2995 0.8164
vn -0.2557 0.4290 0.8664
vn -0.4334 0.3911 0.8119
vn -0.0593 0.4654 0.8831
vn -0.9625 0.0328 0.2691
vn -0.0886 0.9941 0.0631
vn -0.0334 0.9129 -0.4068
vn -0.6274 0.7777 -0.0386
vn -0.6198 0.7847 -0.0065
vn -0.6834 0.7298 0.0156
vn -0.1748 0.9330 0.3147
vn -0.0373 0.9301 0.3655
vn -0.0933 0.9949 0.0378
vn -0.0229 0.9984 0.0511
vn -0.6185 0.7852 0.0320
vn -0.0536 0.9143 -0.4014
vn -0.1036 0.9229 -0.3708
vn -0.5462 0.8320 -0.0973
vn -0.6282 0.7780 0.0025
vn -0.0776 0.9956 -0.0532
vn -0.0358 0.9969 -0.0707
vn -0.0972 0.9953 -0.0000
vn -0.0311 0.9995 0.0014
vn -0.9978 -0.0560 -0.0355
vn -0.9989 -0.0402 -0.0224
vn -0.9976 -0.0689 -0.0113
vn -0.9959 -0.0895 -0.0093
vn -0.9992 -0.0384 -0.0138
vn -0.9957 -0.0311 -0.0877
vn -0.9953 -0.0462 -0.0855
vn -0.9936 -0.0908 -0.0675
vn -0.9947 -0.0703 -0.0756
vn -0.9941 -0.0335 -0.1029
vn -0.9950 0.0044 -0.0994
vn -0.9976 -0.0400 -0.0560
vn -0.9948 -0.0448 -0.0913
vn -0.9926 -0.0465 0.1122
vn -0.9903 -0.0310 0.1356
vn -0.9869 -0.0043 0.1615
vn -0.9954 0.0150 0.0943
vn -0.9941 -0.0278 0.1052
vn -0.9792 -0.0140 0.2026
vn -0.9971 0.0530 0.0546
vn -0.9969 0.0718 -0.0309
vn -0.9997 -0.0234 -0.0051
vn -0.9997 -0.0241 -0.0057
vn -0.9997 -0.0232 -0.0058
vn -0.9997 -0.0166 -0.0155
vn -0.9997 -0.0197 -0.0126
vn -0.9997 -0.0132 -0.0182
vn -0.8590 -0.4258 -0.2842
vn -0.9219 -0.3488 -0.1686
vn -0.9797 -0.1047 -0.1707
vn -0.9931 0.0166 -0.1157
vn -0.9928 -0.0774 -0.0913
vn -0.9980 0.0195 -0.0601
vn -0.0295 0.1672 -0.9855
vn -0.1744 0.1576 -0.9720
vn -0.5621 0.7650 -0.3144
vn -0.0265 0.7896 -0.6130
vn -0.0910 0.8158 -0.5711
vn -0.0505 -0.0590 -0.9970
vn -0.1498 -0.0893 -0.9847
vn -0.8928 -0.1478 -0.4256
vn -0.5434 0.0290 -0.8390
vn -0.7685 -0.4929 -0.4080
vn -0.1648 -0.4691 -0.8676
vn -0.0517 -0.3959 -0.9168
vn -0.9750 -0.2170 -0.0482
vn -0.9951 -0.0993 -0.0021
vn -0.9967 -0.0812 0.0027
vn -0.9729 -0.2304 -0.0191
vn -1.0000 -0.0000 -0.0000
vn 0.0004 -1.0000 0.0004
vn 0.0001 -1.0000 0.0003
vn 0.0009 -1.0000 0.0009
vn 0.0011 -1.0000 0.0010
vn 0.0003 -1.0000 0.0002
vn 0.0007 -1.0000 0.0002
vn 0.0013 -1.0000 0.0004
vn 0.0018 -1.0000 0.0012
vn -0.0068 -0.9953 -0.0967
vn -0.0044 -0.9976 -0.0696
vn 0.0122 0.9954 0.0954
vn -0.8937 0.4487 0.0053
vn 0.0119 0.9954 0.0954
vn 0.0038 0.9954 0.0954
vn -0.0805 -0.4645 0.8819
vn 0.9884 0.1520 -0.0000
vt 0.084929 0.184475
vt 0.086504 0.104613
vt 0.017137 0.136760
vt 0.014962 0.219138
vt 0.160647 0.177323
vt 0.084143 0.264881
vt 0.160647 0.258546
vt 0.558105 0.195460
vt 0.558727 0.224287
vt 0.624178 0.217053
vt 0.630085 0.185850
vt 0.160647 0.096395
vt 0.659107 0.965656
vt 0.729085 0.963670
vt 0.717295 0.942992
vt 0.661103 0.948478
vt 0.694722 0.389634
vt 0.746171 0.375830
vt 0.722748 0.226533
vt 0.650757 0.258581
vt 0.160647 0.015523
vt 0.089427 0.024404
vt 0.560556 0.236926
vt 0.623704 0.231225
vt 0.486600 0.223465
vt 0.486600 0.197051
vt 0.022866 0.054450
vt 0.486600 0.238383
vt 0.801410 0.958847
vt 0.868925 0.946751
vt 0.804709 0.932827
vt 0.772149 0.937237
vt 0.404792 0.962356
vt 0.407446 0.976359
vt 0.657191 0.982775
vt 0.018600 0.356227
vt 0.116604 0.428308
vt 0.161823 0.425286
vt 0.086072 0.348360
vt 0.561368 0.254561
vt 0.620822 0.250394
vt 0.799259 0.221617
vt 0.799259 0.371790
vt 0.242506 0.426544
vt 0.191705 0.348360
vt 0.211847 0.966868
vt 0.307276 0.963489
vt 0.303924 0.951170
vt 0.208188 0.951535
vt 0.972050 0.053043
vt 0.907634 0.020288
vt 0.882166 0.160353
vt 0.931724 0.167523
vt 0.685047 0.591885
vt 0.614043 0.591933
vt 0.614043 0.602789
vt 0.681916 0.602471
vt 0.323494 0.429564
vt 0.437005 0.350711
vt 0.118508 0.961998
vt 0.122788 0.972924
vt 0.235081 0.982775
vt 0.402093 0.949195
vt 0.749497 0.606474
vt 0.755857 0.596144
vt 0.464972 0.065375
vt 0.389179 0.063658
vt 0.396830 0.157480
vt 0.464972 0.159638
vt 0.326841 0.026949
vt 0.330376 0.143889
vt 0.614043 0.581101
vt 0.688155 0.581317
vt 0.900336 0.927406
vt 0.829147 0.919496
vt 0.899988 0.961005
vt 0.923872 0.940851
vt 0.762262 0.585721
vt 0.301931 0.976431
vt 0.114258 0.951099
vt 0.740345 0.981935
vt 0.821610 0.976301
vt 0.934853 0.929798
vt 0.915627 0.922223
vt 0.921299 0.906564
vt 0.945617 0.913087
vt 0.843340 0.893562
vt 0.561608 0.294897
vt 0.626025 0.288495
vt 0.486600 0.256211
vt 0.486600 0.298188
vt 0.922208 0.868390
vt 0.851118 0.862280
vt 0.947214 0.872829
vt 0.556655 0.314459
vt 0.625616 0.306953
vt 0.954630 0.855129
vt 0.931353 0.850826
vt 0.486600 0.317395
vt 0.852321 0.845443
vt 0.014290 0.301537
vt 0.831911 0.019100
vt 0.831911 0.158919
vt 0.198645 0.929580
vt 0.124309 0.930984
vt 0.277017 0.930437
vt 0.356168 0.935159
vt 0.703127 0.410576
vt 0.749278 0.395992
vt 0.799259 0.392532
vt 0.806318 0.636279
vt 0.875129 0.637345
vt 0.868318 0.589543
vt 0.789105 0.590990
vt 0.864679 0.541158
vt 0.785189 0.540997
vt 0.235130 0.440142
vt 0.303868 0.440767
vt 0.831911 0.178438
vt 0.878005 0.179873
vt 0.921845 0.186997
vt 0.133820 0.441807
vt 0.166597 0.438001
vt 0.984881 0.587496
vt 0.943909 0.589458
vt 0.943899 0.637625
vt 0.976397 0.631143
vt 0.943989 0.541319
vt 0.987238 0.541407
vt 0.706200 0.842950
vt 0.705353 0.860862
vt 0.711345 0.887549
vt 0.723909 0.909634
vt 0.745450 0.928106
vt 0.684642 0.892511
vt 0.661893 0.876326
vt 0.663042 0.912301
vt 0.698628 0.919096
vt 0.659242 0.840449
vt 0.387496 0.829308
vt 0.345581 0.827534
vt 0.342256 0.859253
vt 0.375898 0.865689
vt 0.366238 0.896891
vt 0.328938 0.887860
vt 0.404311 0.906389
vt 0.409662 0.872350
vt 0.429324 0.831151
vt 0.305469 0.908633
vt 0.275705 0.915895
vt 0.245101 0.913384
vt 0.156942 0.842293
vt 0.126317 0.845040
vt 0.125462 0.882652
vt 0.160205 0.876798
vt 0.193870 0.837976
vt 0.203489 0.870416
vt 0.123364 0.908310
vt 0.169642 0.905416
vt 0.218413 0.897887
vt 0.688260 0.547318
vt 0.614043 0.547355
vt 0.763704 0.551180
vt 0.101702 0.917842
vt 0.094281 0.907614
vt 0.689398 0.537257
vt 0.614043 0.536722
vt 0.765766 0.538921
vt 0.689779 0.514666
vt 0.614043 0.514071
vt 0.765028 0.515631
vt 0.096252 0.883848
vt 0.108456 0.845660
vt 0.755007 0.477883
vt 0.684240 0.479469
vt 0.614043 0.479617
vt 0.018433 0.010273
vt 0.018105 0.010251
vt 0.018123 0.011152
vt 0.018452 0.011174
vt 0.017682 0.011192
vt 0.017710 0.012093
vt 0.018089 0.012122
vt 0.018061 0.011220
vt 0.015997 0.010272
vt 0.016015 0.011174
vt 0.016360 0.011150
vt 0.016341 0.010249
vt 0.016539 0.011222
vt 0.016567 0.012124
vt 0.016946 0.012095
vt 0.016918 0.011193
vt 0.017301 0.011193
vt 0.017329 0.012095
vt 0.018474 0.012246
vt 0.018447 0.011345
vt 0.018648 0.010288
vt 0.018666 0.011190
vt 0.015602 0.010280
vt 0.015621 0.011182
vt 0.017798 0.010233
vt 0.017816 0.011135
vt 0.016708 0.011127
vt 0.016690 0.010225
vt 0.015779 0.011299
vt 0.015807 0.012201
vt 0.016186 0.012161
vt 0.016159 0.011260
vt 0.017452 0.010221
vt 0.017471 0.011122
vt 0.015399 0.010288
vt 0.015418 0.011190
vt 0.017104 0.010219
vt 0.017123 0.011121
vt 0.015399 0.011345
vt 0.015427 0.012246
vt 0.014968 0.020162
vt 0.014726 0.020293
vt 0.014298 0.019292
vt 0.015200 0.019292
vt 0.013135 0.020293
vt 0.013135 0.019292
vt 0.013135 0.020572
vt 0.013943 0.020525
vt 0.015354 0.018712
vt 0.015189 0.019020
vt 0.014884 0.019183
vt 0.014501 0.019276
vt 0.014232 0.017530
vt 0.014447 0.017514
vt 0.014770 0.017576
vt 0.015043 0.017719
vt 0.015275 0.017975
vt 0.015397 0.018300
vt 0.013135 0.017530
vt 0.015939 0.012314
vt 0.015638 0.012550
vt 0.015459 0.012887
vt 0.015399 0.013265
vt 0.017233 0.013265
vt 0.017159 0.012867
vt 0.017007 0.012518
vt 0.016692 0.012304
vt 0.016313 0.012248
vt 0.014268 0.013237
vt 0.013135 0.013237
vt 0.013135 0.011406
vt 0.014174 0.011406
vt 0.013135 0.014310
vt 0.014259 0.014310
vt 0.013135 0.015383
vt 0.014250 0.015383
vt 0.015127 0.013734
vt 0.015096 0.014231
vt 0.015170 0.013237
vt 0.015096 0.016970
vt 0.015134 0.017530
vt 0.014889 0.010635
vt 0.015000 0.010976
vt 0.013135 0.010976
vt 0.013135 0.010635
vt 0.015076 0.011406
vt 0.013970 0.010272
vt 0.014793 0.010452
vt 0.013135 0.010219
vt 0.442522 0.748709
vt 0.425775 0.750724
vt 0.425986 0.719722
vt 0.442732 0.717707
vt 0.401578 0.784251
vt 0.398004 0.733332
vt 0.536938 0.743111
vt 0.472420 0.745111
vt 0.472630 0.714109
vt 0.537149 0.712109
vt 0.010697 0.009680
vt 0.012160 0.009755
vt 0.012122 0.012313
vt 0.010697 0.012443
vt 0.010696 0.009766
vt 0.010696 0.012530
vt 0.009884 0.012443
vt 0.009884 0.009680
vt 0.013714 0.011460
vt 0.012976 0.011111
vt 0.012976 0.009680
vt 0.013714 0.010029
vt 0.012162 0.009740
vt 0.012975 0.012238
vt 0.012162 0.012298
vt 0.691406 0.710938
vt 0.644531 0.710938
vt 0.644531 0.695312
vt 0.691406 0.695312
vt 0.644531 0.679688
vt 0.691406 0.679688
vt 0.691406 0.757812
vt 0.644531 0.757812
vt 0.644531 0.742188
vt 0.691406 0.742188
vt 0.726983 0.674686
vt 0.712195 0.679491
vt 0.706969 0.669809
vt 0.728979 0.668542
vt 0.644531 0.726562
vt 0.691406 0.726562
vt 0.713326 0.736824
vt 0.728114 0.732019
vt 0.737253 0.744598
vt 0.728114 0.757177
vt 0.713326 0.752372
vt 0.628906 0.726562
vt 0.628906 0.746094
vt 0.574219 0.746094
vt 0.574219 0.726562
vt 0.712195 0.695039
vt 0.726983 0.699844
vt 0.728979 0.705988
vt 0.706969 0.704721
vt 0.736122 0.687265
vt 0.742582 0.687265
vt 0.628906 0.769531
vt 0.628906 0.804688
vt 0.574219 0.804688
vt 0.574219 0.769531
vt 0.628906 0.703125
vt 0.574219 0.703125
vt 0.628906 0.679688
vt 0.574219 0.679688
s 1
usemtl Material.001
f 249/133/73 252/134/73 250/135/73 247/136/73
f 248/137/74 249/133/74 246/138/74 244/139/74
f 245/140/75 254/141/75 253/142/75 241/143/75
f 251/144/76 252/134/76 249/133/76 248/137/76
f 293/145/77 292/146/77 262/147/77 263/148/77
f 266/149/78 265/150/78 246/151/78 242/152/78
f 243/153/79 245/154/79 252/134/79 251/144/79
f 257/155/80 256/156/80 253/142/80 254/141/80
f 255/157/81 254/141/81 245/140/81 243/158/81
f 245/154/82 241/159/82 250/135/82 252/134/82
f 254/141/83 255/157/83 258/160/83 257/155/83
f 291/161/84 289/162/84 259/163/84 261/164/84
f 292/146/85 291/161/85 261/164/85 262/147/85
f 293/145/86 294/165/86 275/166/86 242/167/86
f 269/168/87 273/169/87 268/170/87 267/171/87
f 257/155/88 302/172/88 287/173/88 256/156/88
f 244/174/89 246/151/89 265/150/89 264/175/89
f 276/176/90 275/177/91 267/171/92 268/170/92
f 299/178/93 296/179/93 280/180/93 285/181/93
f 269/182/94 270/183/94 274/184/94 273/185/94
f 298/186/95 297/187/96 281/188/97 283/189/97
f 266/190/98 242/191/98 275/177/91 276/176/90
f 299/178/99 295/192/99 279/193/99 269/194/99
f 296/179/100 294/165/100 277/195/100 280/180/100
f 298/186/101 283/189/101 279/196/101 295/197/101
f 271/198/102 270/199/102 283/200/102 281/201/102
f 270/199/103 269/202/103 279/203/103 283/200/103
f 282/204/104 297/187/96 298/186/95 284/205/104
f 289/162/105 290/206/105 260/207/105 259/163/105
f 241/208/106 253/209/106 290/206/106 289/162/106
f 284/205/107 298/186/107 295/197/107 278/210/107
f 267/211/108 275/166/108 294/165/108 296/179/108
f 285/181/109 278/212/109 295/192/109 299/178/109
f 269/194/110 267/211/110 296/179/110 299/178/110
f 263/148/111 277/195/111 294/165/111 293/145/111
f 247/213/112 250/214/112 291/161/112 292/146/112
f 250/214/113 241/208/113 289/162/113 291/161/113
f 242/167/114 247/213/114 292/146/114 293/145/114
f 256/215/115 301/216/115 290/206/115 253/209/115
f 260/207/116 290/206/116 301/216/116
f 300/217/117 301/216/117 256/215/117 287/218/117
f 286/219/118 260/207/118 301/216/118 300/217/118
f 302/172/119 307/220/119 305/221/119 287/173/119
f 258/160/120 288/222/120 302/172/120 257/155/120
f 288/222/121 306/223/121 307/220/121 302/172/121
f 300/217/122 304/224/122 303/225/122 286/219/122
f 287/218/123 305/226/123 304/224/123 300/217/123
f 305/221/124 307/220/124 311/227/124 309/228/124
f 305/226/125 309/229/125 308/230/125 304/224/125
f 306/223/126 310/231/126 311/227/126 307/220/126
f 312/232/127 303/225/127 304/224/127 308/230/127
f 249/133/128 247/136/128 242/233/128 246/138/128
f 271/234/129 272/235/129 274/184/129 270/183/129
f 314/236/130 313/237/130 278/212/130 285/181/130
f 280/180/131 315/238/131 314/236/131 285/181/131
f 316/239/132 315/238/132 280/180/132 277/195/132
f 266/149/133 319/240/133 318/241/133 265/150/133
f 265/150/134 318/241/134 317/242/134 264/175/134
f 319/243/135 322/244/135 321/245/135 318/246/135
f 318/246/136 321/245/136 320/247/136 317/248/136
f 266/190/137 276/176/137 322/249/137 319/250/137
f 272/235/138 324/251/138 326/252/138 274/184/138
f 274/184/139 326/252/139 325/253/139 273/185/139
f 273/169/140 325/254/140 323/255/140 268/170/140
f 268/170/141 323/255/141 322/249/141 276/176/141
f 326/256/142 328/257/142 323/258/142 325/259/142
f 327/260/143 328/257/143 326/256/143 324/261/143
f 321/245/144 322/244/144 323/258/144 328/257/144
f 320/247/145 321/245/145 328/257/145 327/260/145
f 303/225/146 312/232/146 330/262/146 331/263/146
f 286/219/147 303/225/147 331/263/147 332/264/147
f 260/207/148 286/219/148 332/264/148 334/265/148
f 259/163/149 260/207/149 334/265/149 333/266/149
f 261/164/150 259/163/150 333/266/150
f 338/267/151 336/268/151 337/269/151 335/270/151
f 329/271/152 336/268/152 338/267/152
f 330/262/153 329/271/153 331/263/153
f 331/263/154 329/271/154 332/264/154
f 332/264/155 329/271/155 338/267/155 334/265/155
f 334/265/156 338/267/156 335/270/156 333/266/156
f 262/147/157 261/164/157 333/266/157 335/270/157
f 263/148/158 262/147/158 335/270/158 337/269/158
f 351/272/159 340/273/159 349/274/159 352/275/159
f 353/276/160 352/275/160 349/274/160 347/277/160
f 342/278/161 341/279/161 352/275/161 353/276/161
f 339/280/162 351/272/162 352/275/162 341/279/162
f 348/281/163 316/239/163 353/276/163 347/277/163
f 316/239/164 277/195/164 342/278/164 353/276/164
f 315/238/165 316/239/165 348/281/165 343/282/165
f 314/236/166 315/238/166 343/282/166 346/283/166
f 329/271/167 339/280/167 341/279/168 336/268/169
f 336/268/169 341/279/168 342/278/170 337/269/171
f 277/195/172 263/148/172 337/269/171 342/278/170
f 356/284/173 354/285/173 355/286/173 357/287/173
f 345/288/174 356/284/174 357/287/174 350/289/174
f 355/286/175 359/290/175 358/291/175 357/287/175
f 314/236/176 358/291/176 359/290/176 313/237/176
f 350/289/177 357/287/177 358/291/177 344/292/177
f 344/292/178 358/291/178 314/236/178 346/283/178
f 284/205/179 361/293/179 360/294/179 282/204/179
f 362/295/180 361/293/180 284/205/180 278/210/180
f 362/296/181 359/290/181 363/297/181
f 360/294/182 361/293/182 364/298/182 365/299/182
f 361/293/183 362/295/183 363/300/183 364/298/183
f 364/298/184 367/301/184 368/302/184 365/299/184
f 363/300/185 366/303/185 367/301/185 364/298/185
f 359/290/186 355/286/186 366/304/186 363/297/186
f 278/212/187 313/237/187 359/290/187 362/296/187
f 354/285/188 369/305/188 366/304/188 355/286/188
f 367/301/189 366/303/189 369/306/189 371/307/189
f 368/302/190 367/301/190 371/307/190 370/308/190
f 350/289/191 349/274/191 340/273/191 345/288/191
f 349/274/192 350/289/192 344/292/192 347/277/192
f 346/283/193 348/281/193 347/277/193 344/292/193
f 348/281/194 346/283/194 343/282/194
f 331/309/195 332/310/195 380/311/195 379/312/195
f 344/313/196 385/314/196 391/315/196 350/316/196
f 286/317/197 375/318/197 373/319/197 260/320/197
f 348/321/198 389/322/198 384/323/198 343/324/198
f 346/325/199 387/326/199 385/314/199 344/313/199
f 350/316/200 391/315/200 386/327/200 345/328/200
f 330/329/201 331/309/201 379/312/201 378/330/201
f 343/324/202 384/323/202 387/326/202 346/325/202
f 303/331/203 376/332/203 375/318/203 286/317/203
f 332/310/204 334/333/204 382/334/204 380/311/204
f 260/320/205 373/319/205 372/335/205 259/336/205
f 349/337/206 390/338/206 388/339/206 347/340/206
f 334/333/207 333/341/207 381/342/207 382/334/207
f 347/340/208 388/339/208 389/322/208 348/321/208
f 312/343/209 377/344/209 376/332/209 303/331/209
f 333/341/210 261/345/210 374/346/210 381/342/210
f 340/347/211 383/348/211 390/338/211 349/337/211
f 259/336/212 372/335/212 374/346/212 261/345/212
f 308/349/213 309/350/213 377/351/213 312/352/213
f 377/351/213 309/350/213 392/353/213 393/354/213
f 310/355/213 392/353/213 309/350/213 311/356/213
f 372/357/214 373/358/214 375/359/214 376/360/214 377/351/214 378/361/214 379/362/214 380/363/214 382/364/214 381/365/214 374/366/214
f 394/367/215 378/361/215 377/351/215 393/354/215
f 389/368/214 388/369/214 390/370/214 383/371/214 386/372/214 391/373/214 385/374/214 387/375/214 384/376/214
f 383/377/216 396/378/216 395/379/216 386/380/216
f 400/381/217 396/378/217 383/377/218 399/382/219
f 394/367/217 398/383/217 397/384/220 378/361/221
f 398/383/217 400/381/217 399/382/219 397/384/220
f 351/385/222 339/386/223 399/382/219 383/377/218
f 340/387/213 351/385/222 383/377/218
f 339/386/223 329/388/224 397/384/220 399/382/219
f 329/388/224 330/389/225 378/361/221 397/384/220
f 354/390/226 356/391/226 402/392/226 401/393/226
f 356/391/226 345/394/226 386/380/226 402/392/226
f 395/379/226 402/392/226 386/380/226
f 354/390/227 401/393/227 371/395/227 369/396/227
f 370/397/228 371/395/229 401/393/228
f 411/398/230 404/399/230 406/400/230 412/401/230
f 406/400/231 404/399/231 407/402/231 408/403/231
f 403/404/232 409/405/233 410/406/234 405/407/232
f 409/405/233 411/398/230 412/401/230 410/406/234
f 413/408/235 415/409/235 416/410/235 414/411/235
f 302/412/213 288/413/213 413/414/213 414/415/213
f 302/416/236 414/417/236 416/418/236 307/419/236
f 307/420/237 416/418/237 415/421/237 306/422/237
f 417/423/238 418/424/238 420/425/238 419/426/238
f 419/426/239 420/425/239 422/427/239 421/428/239
f 421/429/213 422/430/213 424/431/213 423/432/213
f 426/433/209 424/434/209 430/435/209 431/436/209
f 423/432/240 424/431/240 426/437/240 425/438/240
f 425/438/241 426/437/241 418/424/241 417/423/241
f 417/439/209 419/440/209 421/441/209 423/442/209 425/443/209
f 428/444/242 431/445/242 436/446/242 433/447/242
f 422/448/209 420/449/209 427/450/209 429/451/209
f 418/452/209 426/433/209 431/436/209 428/453/209
f 420/449/209 418/452/209 428/453/209 427/450/209
f 424/434/209 422/448/209 429/451/209 430/435/209
f 430/454/213 429/455/213 434/456/213 435/457/213
f 427/458/243 428/444/243 433/447/243 432/459/243
f 431/445/244 430/454/244 435/457/244 436/446/244
f 429/460/245 427/458/245 432/459/245 434/461/245
f 442/133/246 441/136/246 443/135/246 444/134/246
f 248/137/247 244/139/247 440/138/247 442/133/247
f 439/140/248 437/143/248 445/142/248 446/141/248
f 251/144/249 248/137/249 442/133/249 444/134/249
f 477/145/250 453/148/250 452/147/250 476/146/250
f 455/149/251 438/152/251 440/151/251 454/150/251
f 243/153/252 251/144/252 444/134/252 439/154/252
f 448/155/253 446/141/253 445/142/253 447/156/253
f 255/157/254 243/158/254 439/140/254 446/141/254
f 439/154/255 444/134/255 443/135/255 437/159/255
f 446/141/256 448/155/256 258/160/256 255/157/256
f 475/161/257 451/164/257 449/163/257 473/162/257
f 476/146/258 452/147/258 451/164/258 475/161/258
f 477/145/259 438/167/259 462/166/259 478/165/259
f 458/168/260 456/171/260 457/170/260 460/169/260
f 448/155/261 447/156/261 472/173/261 485/172/261
f 244/174/262 264/175/262 454/150/262 440/151/262
f 463/176/263 457/170/264 456/171/264 462/177/265
f 482/178/266 470/181/266 467/180/266 480/179/266
f 458/182/267 460/185/267 461/184/267 459/183/267
f 481/186/268 468/189/269 281/188/269 297/187/270
f 455/190/271 463/176/263 462/177/265 438/191/271
f 482/178/272 458/194/272 466/193/272 479/192/272
f 480/179/273 467/180/273 464/195/273 478/165/273
f 481/186/274 479/197/274 466/196/274 468/189/274
f 271/198/275 281/201/275 468/200/275 459/199/275
f 459/199/276 468/200/276 466/203/276 458/202/276
f 282/204/277 469/205/277 481/186/268 297/187/270
f 473/162/278 449/163/278 450/207/278 474/206/278
f 437/208/279 473/162/279 474/206/279 445/209/279
f 469/205/280 465/210/280 479/197/280 481/186/280
f 456/211/281 480/179/281 478/165/281 462/166/281
f 470/181/282 482/178/282 479/192/282 465/212/282
f 458/194/283 482/178/283 480/179/283 456/211/283
f 453/148/284 477/145/284 478/165/284 464/195/284
f 441/213/285 476/146/285 475/161/285 443/214/285
f 443/214/286 475/161/286 473/162/286 437/208/286
f 438/167/287 477/145/287 476/146/287 441/213/287
f 447/215/288 445/209/288 474/206/288 484/216/288
f 450/207/289 484/216/289 474/206/289
f 483/217/290 472/218/290 447/215/290 484/216/290
f 471/219/291 483/217/291 484/216/291 450/207/291
f 485/172/292 472/173/292 488/221/292 489/220/292
f 258/160/293 448/155/293 485/172/293 288/222/293
f 288/222/294 485/172/294 489/220/294 306/223/294
f 483/217/295 471/219/295 486/225/295 487/224/295
f 472/218/296 483/217/296 487/224/296 488/226/296
f 488/221/297 491/228/297 492/227/297 489/220/297
f 488/226/298 487/224/298 490/230/298 491/229/298
f 306/223/299 489/220/299 492/227/299 310/231/299
f 493/232/300 490/230/300 487/224/300 486/225/300
f 442/133/301 440/138/301 438/233/301 441/136/301
f 271/234/302 459/183/302 461/184/302 272/235/302
f 495/236/303 470/181/303 465/212/303 494/237/303
f 467/180/304 470/181/304 495/236/304 496/238/304
f 497/239/305 464/195/305 467/180/305 496/238/305
f 455/149/306 454/150/306 498/241/306 499/240/306
f 454/150/307 264/175/307 317/242/307 498/241/307
f 499/243/308 498/246/308 500/245/308 501/244/308
f 498/246/309 317/248/309 320/247/309 500/245/309
f 455/190/310 499/250/310 501/249/310 463/176/310
f 272/235/311 461/184/311 504/252/311 324/251/311
f 461/184/312 460/185/312 503/253/312 504/252/312
f 460/169/313 457/170/313 502/255/313 503/254/313
f 457/170/314 463/176/314 501/249/314 502/255/314
f 504/256/315 503/259/315 502/258/315 505/257/315
f 327/260/316 324/261/316 504/256/316 505/257/316
f 500/245/317 505/257/317 502/258/317 501/244/317
f 320/247/318 327/260/318 505/257/318 500/245/318
f 486/225/319 508/263/319 507/262/319 493/232/319
f 471/219/320 509/264/320 508/263/320 486/225/320
f 450/207/321 511/265/321 509/264/321 471/219/321
f 449/163/322 510/266/322 511/265/322 450/207/322
f 451/164/323 510/266/323 449/163/323
f 515/267/324 512/270/324 514/269/324 513/268/324
f 506/271/325 515/267/325 513/268/325
f 507/262/326 508/263/326 506/271/326
f 508/263/327 509/264/327 506/271/327
f 509/264/328 511/265/328 515/267/328 506/271/328
f 511/265/329 510/266/329 512/270/329 515/267/329
f 452/147/330 512/270/330 510/266/330 451/164/330
f 453/148/331 514/269/331 512/270/331 452/147/331
f 528/272/332 529/275/332 526/274/332 517/273/332
f 530/276/333 524/277/333 526/274/333 529/275/333
f 519/278/334 530/276/334 529/275/334 518/279/334
f 516/280/335 518/279/335 529/275/335 528/272/335
f 525/281/336 524/277/336 530/276/336 497/239/336
f 497/239/337 530/276/337 519/278/337 464/195/337
f 496/238/338 520/282/338 525/281/338 497/239/338
f 495/236/339 523/283/339 520/282/339 496/238/339
f 506/271/340 513/268/341 518/279/342 516/280/340
f 513/268/341 514/269/343 519/278/344 518/279/342
f 464/195/345 519/278/344 514/269/343 453/148/345
f 533/284/346 534/287/346 532/286/346 531/285/346
f 522/288/347 527/289/347 534/287/347 533/284/347
f 532/286/348 534/287/348 535/291/348 536/290/348
f 495/236/349 494/237/349 536/290/349 535/291/349
f 527/289/350 521/292/350 535/291/350 534/287/350
f 521/292/351 523/283/351 495/236/351 535/291/351
f 469/205/352 282/204/352 360/294/352 537/293/352
f 538/295/353 465/210/353 469/205/353 537/293/353
f 538/296/354 539/297/354 536/290/354
f 360/294/355 365/299/355 540/298/355 537/293/355
f 537/293/356 540/298/356 539/300/356 538/295/356
f 540/298/357 365/299/357 368/302/357 542/301/357
f 539/300/358 540/298/358 542/301/358 541/303/358
f 536/290/359 539/297/359 541/304/359 532/286/359
f 465/212/360 538/296/360 536/290/360 494/237/360
f 531/285/361 532/286/361 541/304/361 543/305/361
f 542/301/362 544/307/362 543/306/362 541/303/362
f 368/302/363 370/308/363 544/307/363 542/301/363
f 527/289/364 522/288/364 517/273/364 526/274/364
f 526/274/365 524/277/365 521/292/365 527/289/365
f 523/283/366 521/292/366 524/277/366 525/281/366
f 525/281/367 520/282/367 523/283/367
f 508/309/195 552/312/195 553/311/195 509/310/195
f 521/313/196 527/316/196 564/315/196 558/314/196
f 471/317/197 450/320/197 546/319/197 548/318/197
f 525/321/198 520/324/198 557/323/198 562/322/198
f 523/325/199 521/313/199 558/314/199 560/326/199
f 527/316/200 522/328/200 559/327/200 564/315/200
f 507/329/201 551/330/201 552/312/201 508/309/201
f 520/324/202 523/325/202 560/326/202 557/323/202
f 486/331/203 471/317/203 548/318/203 549/332/203
f 509/310/204 553/311/204 555/334/204 511/333/204
f 450/320/205 449/336/205 545/335/205 546/319/205
f 526/337/206 524/340/206 561/339/206 563/338/206
f 511/333/207 555/334/207 554/342/207 510/341/207
f 524/340/208 525/321/208 562/322/208 561/339/208
f 493/343/209 486/331/209 549/332/209 550/344/209
f 510/341/210 554/342/210 547/346/210 451/345/210
f 517/347/211 526/337/211 563/338/211 556/348/211
f 449/336/212 451/345/212 547/346/212 545/335/212
f 490/349/213 493/352/213 550/351/213 491/350/213
f 550/351/213 393/354/213 392/353/213 491/350/213
f 310/355/213 492/356/213 491/350/213 392/353/213
f 545/357/368 547/366/368 554/365/368 555/364/368 553/363/368 552/362/368 551/361/368 550/351/368 549/360/368 548/359/368 546/358/368
f 394/367/215 393/354/215 550/351/215 551/361/215
f 562/368/368 557/376/368 560/375/368 558/374/368 564/373/368 559/372/368 556/371/368 563/370/368 561/369/368
f 556/377/216 559/380/216 395/379/216 396/378/216
f 400/381/217 566/382/369 556/377/370 396/378/217
f 394/367/217 551/361/371 565/384/372 398/383/217
f 398/383/217 565/384/372 566/382/369 400/381/217
f 528/385/373 556/377/370 566/382/369 516/386/374
f 517/387/213 556/377/370 528/385/373
f 516/386/374 566/382/369 565/384/372 506/388/375
f 506/388/375 565/384/372 551/361/371 507/389/376
f 531/390/226 401/393/226 402/392/226 533/391/226
f 533/391/226 402/392/226 559/380/226 522/394/226
f 395/379/226 559/380/226 402/392/226
f 531/390/377 543/396/377 544/395/377 401/393/377
f 370/397/228 401/393/228 544/395/378
f 573/398/379 574/401/379 568/400/379 567/399/379
f 568/400/380 570/403/380 569/402/380 567/399/380
f 403/404/232 405/407/232 572/406/381 571/405/382
f 571/405/382 572/406/381 574/401/379 573/398/379
f 413/408/383 575/411/383 576/410/383 415/409/383
f 485/412/213 575/415/213 413/414/213 288/413/213
f 485/416/384 489/419/384 576/418/384 575/417/384
f 489/420/237 306/422/237 415/421/237 576/418/237
f 577/423/241 579/426/241 580/425/241 578/424/241
f 579/426/240 581/428/240 582/427/240 580/425/240
f 581/429/213 583/432/213 584/431/213 582/430/213
f 586/433/209 591/436/209 590/435/209 584/434/209
f 583/432/239 585/438/239 586/437/239 584/431/239
f 585/438/238 577/423/238 578/424/238 586/437/238
f 577/439/209 585/443/209 583/442/209 581/441/209 579/440/209
f 588/444/243 593/447/243 596/446/243 591/445/243
f 582/448/209 589/451/209 587/450/209 580/449/209
f 578/452/209 588/453/209 591/436/209 586/433/209
f 580/449/209 587/450/209 588/453/209 578/452/209
f 584/434/209 590/435/209 589/451/209 582/448/209
f 590/454/213 595/457/213 594/456/213 589/455/213
f 587/458/242 592/459/242 593/447/242 588/444/242
f 591/445/245 596/446/245 595/457/245 590/454/245
f 589/460/244 594/461/244 592/459/244 587/458/244
o Plane.003_Plane.004
v -0.588454 0.569330 1.708022
v 0.065093 0.601156 1.742740
v -0.586920 0.594385 1.666885
v 0.066627 0.626211 1.701603
v -0.257077 0.614250 1.748257
v -0.255542 0.639305 1.707120
v -0.791042 0.510644 1.703676
v -0.251544 0.623335 1.752591
v -0.796199 0.531170 1.660381
v -0.256710 0.646295 1.710579
v -0.469186 0.614482 1.746304
v -0.474342 0.635007 1.703009
v 0.211659 0.571325 1.764879
v 0.841375 0.550917 1.593621
v 0.201869 0.595964 1.724636
v 0.831585 0.575556 1.553378
v 0.543548 0.601544 1.708295
v 0.533758 0.626183 1.668053
v 0.017241 0.545645 1.841401
v 0.550697 0.607731 1.707912
v 0.000071 0.566358 1.801419
v 0.534135 0.630875 1.669067
v 0.332015 0.614170 1.784383
v 0.314845 0.634883 1.744401
v -0.212679 0.696671 -1.988317
v -0.836837 0.662608 -1.859788
v -0.206414 0.722335 -1.948013
v -0.830572 0.688273 -1.819483
v -0.541475 0.721375 -1.952305
v -0.535210 0.747039 -1.912001
v -0.006343 0.673118 -2.049132
v -0.547882 0.726628 -1.953471
v 0.007437 0.695124 -2.008534
v -0.534719 0.751021 -1.914093
v -0.340701 0.729399 -1.996228
v -0.326921 0.751405 -1.955629
vn 0.0436 0.8525 0.5209
vn -0.1760 0.8436 0.5073
vn -0.0556 0.8868 0.4588
vn -0.3281 0.8379 0.4363
vn 0.3124 0.8421 0.4396
vn 0.0109 0.8540 0.5202
vn 0.1680 0.8902 0.4234
vn -0.0995 0.8654 0.4911
vn -0.3125 0.8225 -0.4752
vn 0.0045 0.8432 -0.5376
vn -0.1027 0.8750 -0.4730
vn 0.0680 0.8673 -0.4932
vt 0.722812 0.629074
vt 0.733046 0.629074
vt 0.733046 0.636783
vt 0.722812 0.636783
vt 0.712234 0.629074
vt 0.712234 0.636783
vt 0.732555 0.629074
vt 0.732555 0.636783
vt 0.707220 0.629074
vt 0.707220 0.636783
s 1
usemtl Material.001
f 601/462/385 598/463/385 600/464/385 602/465/385
f 597/466/386 601/462/386 602/465/386 599/467/386
f 607/462/387 604/468/387 606/469/387 608/465/387
f 603/470/388 607/462/388 608/465/388 605/471/388
f 613/462/389 610/463/389 612/464/389 614/465/389
f 609/466/390 613/462/390 614/465/390 611/467/390
f 619/462/391 616/468/391 618/469/391 620/465/391
f 615/470/392 619/462/392 620/465/392 617/471/392
f 625/462/393 622/463/393 624/464/393 626/465/393
f 621/466/394 625/462/394 626/465/394 623/467/394
f 631/462/395 628/468/395 630/469/395 632/465/395
f 627/470/396 631/462/396 632/465/396 629/471/396
